<svg width="40" height="24" viewBox="0 0 40 24" fill="none" xmlns="http://www.w3.org/2000/svg">
<path d="M35.0644 17.254C35.0045 16.9541 34.9452 16.6395 34.8875 16.3168L39.3376 15.0856L38.6795 13.616C38.1265 12.381 37.592 11.1166 37.0913 9.85821C37.0309 9.7069 36.8877 9.34821 36.8877 9.34767C36.6433 8.73588 36.4305 8.20356 36.2079 7.60865C36.559 7.57763 36.9101 7.56184 37.254 7.56184H37.3106C37.3547 7.56184 37.3988 7.56239 37.4435 7.56348L39.0845 7.59015L38.7802 5.7597L38.7383 5.46632C38.6077 4.553 38.4602 3.5183 38.3965 2.66159L38.2561 0.764186L36.4942 1.48265C36.3293 1.5496 36.1927 1.60403 36.0969 1.64158C35.1155 2.0264 32.8747 2.79984 28.8992 3.65764C28.75 3.68975 28.6308 3.71534 28.5666 3.72894L26.9196 4.07783L27.5809 5.62634C27.6908 5.88325 27.7904 6.14778 27.8775 6.41285C27.9026 6.48796 27.9276 6.56742 27.9526 6.64798C27.1476 5.9736 26.2305 5.59858 25.29 5.56157C25.2513 5.55994 25.2012 5.55885 25.1414 5.55885C24.8121 5.55885 24.4648 5.60294 24.1361 5.68622L23.1563 5.11961L23.994 0.297728L20.166 3.63532L13.4581 0L17.2747 6.08681L15.1732 7.80079L15.0736 7.81875C15.0088 7.83018 14.9479 7.84107 14.9065 7.84869C14.827 7.86338 14.7481 7.87808 14.6692 7.89223L13.1234 8.16655L14.0139 11.0268L12.7266 11.6876C12.5748 10.9484 12.436 10.2022 12.3135 9.46904C12.0838 8.09471 11.8987 6.69316 11.7632 5.30358L11.6032 3.65982L3.86391 5.82991L4.43161 7.25813C4.49801 7.42468 4.56006 7.58525 4.61993 7.74527L0.662384 8.82515L0.709193 8.9106C0.867038 9.19962 1.00855 9.50116 1.13102 9.80705C1.20395 9.98993 1.27145 10.1777 1.33241 10.3688C1.34112 10.3922 1.35037 10.4161 1.35853 10.4406C1.36724 10.4662 1.37595 10.4945 1.38575 10.5261L1.58822 11.1836C1.77056 11.7741 2.10966 12.8741 2.18531 13.124C2.7492 14.9947 3.6021 17.8212 4.04298 21.3036C4.06747 21.4973 4.08598 21.6552 4.09741 21.7521L4.28029 23.3436L10.4215 21.7064C10.4324 21.727 10.4433 21.7472 10.4547 21.7673C11.257 23.2146 12.6776 23.816 13.3166 23.932C13.6557 23.9935 13.9894 24 14.1173 24H14.1369C14.2468 23.9989 14.4308 23.9973 14.6632 23.9614C14.7606 23.9461 15.1084 23.8841 15.4851 23.7197C16.4828 23.2843 17.1474 22.3268 17.334 22.0318C17.8065 21.8876 18.2789 21.7428 18.7514 21.5986C19.6522 21.3205 20.5769 21.0831 21.4995 20.8943C22.261 20.7386 23.0377 20.6118 23.8095 20.5176L25.4271 20.3206L24.9721 18.7645C25.0494 18.7688 25.1272 18.771 25.2045 18.7715H25.2159C25.6846 18.7715 26.5957 18.6877 27.4318 18.1249C27.638 17.9861 27.8323 17.8239 28.0098 17.6427C28.1899 18.3845 28.3413 19.1378 28.4599 19.8841L28.6929 21.3515L33.4603 20.2406L33.0782 18.9718L35.3643 18.7585L35.0649 17.2535L35.0644 17.254Z" fill="white"/>
<path d="M34.6105 17.3474C34.5245 16.9147 34.4396 16.4558 34.3585 15.9823L38.6933 14.7827L38.2573 13.8095C37.7016 12.5685 37.1649 11.2981 36.6614 10.0337C36.5912 9.85684 36.5237 9.68812 36.4578 9.52428C36.1438 8.73778 35.8695 8.05197 35.569 7.21485C36.1334 7.13702 36.7017 7.09783 37.2601 7.09783H37.3173C37.3635 7.09783 37.4093 7.09892 37.455 7.09946L38.5354 7.11688L38.322 5.83344L38.279 5.53517C38.1473 4.61423 37.9987 3.57027 37.934 2.69886L37.8409 1.44209L36.6739 1.9178C36.5063 1.98584 36.3675 2.04081 36.2706 2.07891C35.2762 2.46863 33.0092 3.25186 29.001 4.11674C28.8503 4.1494 28.7294 4.17498 28.6663 4.18805L27.5755 4.41883L28.0137 5.44427C28.1492 5.7752 28.2521 6.05714 28.3245 6.26833C28.5041 6.82568 28.6124 7.26057 28.6554 7.47502C28.6941 7.66716 28.7218 7.85331 28.7218 7.85331C28.7371 7.95291 28.7479 8.03728 28.755 8.09933C28.7186 8.05306 28.6647 7.98666 28.5977 7.90828C28.1253 7.35746 27.6654 7.02217 27.5211 6.92039C26.604 6.27268 25.6977 6.04626 25.2754 6.02939C25.2111 6.02666 25.1453 6.02666 25.1453 6.02666C24.8383 6.02666 24.5139 6.07021 24.208 6.15185C24.1666 6.16274 24.1236 6.17526 24.0768 6.18995L22.6443 5.36154L23.3127 1.51612L20.2325 4.20111L14.801 1.25867L17.8931 6.18995L15.3791 8.2403C15.3186 8.25173 15.2354 8.26642 15.1586 8.28058C15.0955 8.29201 15.0367 8.30235 14.9964 8.30997C14.9153 8.32521 14.8348 8.3399 14.7542 8.35406L13.7304 8.53585L15.0721 12.845H14.6388C14.5632 12.6899 14.4951 12.5467 14.4314 12.4107L14.0298 11.5474L12.3991 12.3845C12.1955 11.4418 12.0132 10.4888 11.8564 9.54823C11.6251 8.16355 11.4384 6.75112 11.3018 5.3512L11.1956 4.26261L4.49267 6.14151L4.86878 7.08749C5.00049 7.41951 5.11861 7.73356 5.23617 8.06449L1.36136 9.12749L1.44355 9.29514C1.50287 9.41651 1.55567 9.53952 1.60085 9.66144C1.63024 9.742 1.64983 9.80296 1.6961 9.94992C1.72114 10.0305 1.75488 10.1366 1.80224 10.2852L1.83816 10.3973L2.01832 10.9814C2.20719 11.5926 2.55826 12.7313 2.63609 12.9898C3.20488 14.8752 4.06431 17.7246 4.51063 21.2467C4.53567 21.4426 4.55418 21.6021 4.56561 21.7001L4.68698 22.7538L10.6807 21.1558C10.7384 21.2919 10.801 21.4209 10.8674 21.5417C11.5325 22.7419 12.749 23.3542 13.4044 23.4734C13.7146 23.5295 14.0319 23.5338 14.1217 23.5338H14.137C14.2404 23.5327 14.3972 23.5316 14.5969 23.5006C14.6562 23.4914 14.9697 23.438 15.3029 23.2927C16.2624 22.8736 16.902 21.853 16.9717 21.7382C17.1143 21.5031 17.2814 21.1776 17.4708 20.5462L17.744 21.4236L18.6176 21.1536C19.5325 20.8711 20.472 20.63 21.4098 20.4384C22.1838 20.28 22.9736 20.151 23.7568 20.0558L24.828 19.9252L24.5253 18.8894C24.4589 18.6624 24.3974 18.4322 24.3408 18.2014C24.6249 18.27 24.9156 18.3053 25.2084 18.3064H25.2199C25.6351 18.3064 26.4418 18.233 27.1749 17.7393C27.5984 17.4541 27.9555 17.0638 28.2227 16.5963C28.5172 17.6506 28.7534 18.7326 28.9248 19.813L29.0789 20.7851L32.8726 19.9012L32.4693 18.5622L34.8081 18.344L34.61 17.3474H34.6105Z" fill="#4F75F9"/>
<path d="M16.8016 8.27512L20.1403 7.82989L21.5794 9.72729C21.6169 8.91521 21.6545 8.10313 21.6921 7.29159L23.6455 7.03577L21.7367 5.92106L22.4029 3.23552L20.3444 5.2973L16.6252 3.02271L19.1192 6.41528L16.8011 8.27567L16.8016 8.27512Z" fill="white"/>
<path d="M10.9585 14.0421C11.1305 13.9561 11.3368 13.8353 11.5507 13.6655C11.6149 13.6143 11.6748 13.5631 11.7303 13.512C11.4538 12.3124 11.2013 11.0594 10.983 9.75365C10.7359 8.27426 10.5525 6.85148 10.4202 5.49402L5.75074 6.80304C6.1078 7.70167 6.33695 8.39945 6.66461 9.4287C7.1425 10.932 7.31994 11.8192 7.59644 13.1375C7.13869 13.3128 6.78925 13.4336 6.3315 13.6094C5.87375 12.0647 5.55044 10.8923 5.43832 10.4177C5.37682 10.1564 5.32729 9.91639 5.32729 9.91639C5.25598 9.57131 5.20809 9.2861 5.1776 9.09288C4.31871 9.32692 3.46036 9.56151 2.60147 9.79556C2.64066 9.887 2.64284 9.89244 2.64284 9.89244C2.68475 9.99314 2.7136 10.0857 2.74353 10.1809C2.74789 10.1951 2.75006 10.2016 2.75006 10.2016C2.79905 10.3616 3.4326 12.4125 3.5431 12.7788C4.16849 14.8526 5.00289 17.6595 5.44921 21.1854C5.47479 21.3857 5.49384 21.549 5.50527 21.6497C6.92587 21.2709 8.34593 20.892 9.76653 20.5132C9.40022 19.9129 9.01922 19.1971 8.67414 18.3671C8.19625 17.217 7.91757 16.1578 7.75047 15.2782C8.36988 15.0926 8.87988 14.9614 9.49928 14.7764C9.68761 15.3865 9.84708 15.9466 9.98207 16.4463C9.98207 16.4463 10.301 17.6257 10.3424 18.4373C10.3506 18.5935 10.3457 18.7432 10.3457 18.7432C10.3418 18.8553 10.3331 18.9511 10.325 19.0246C11.216 18.7443 12.107 18.4634 12.9974 18.1831C12.7503 17.3933 12.5098 16.5709 12.2801 15.7164C12.2175 15.6325 12.1549 15.5487 12.0907 15.4649C11.7102 14.9647 11.3314 14.4906 10.958 14.0416L10.9585 14.0421Z" fill="white"/>
<path d="M34.4434 6.67833C35.3714 6.4764 36.3468 6.36264 37.3646 6.36754C37.4142 6.36754 37.4642 6.36808 37.5132 6.36917C37.5067 6.32563 37.498 6.26521 37.492 6.22112C37.3499 5.23378 37.2166 4.24915 37.0919 3.2678C37.0773 3.11594 37.0642 2.9668 37.0533 2.82202C36.8808 2.89224 36.7376 2.94884 36.6386 2.98803C36.0943 3.20139 33.8104 4.07934 29.228 5.06831C29.0756 5.10097 28.9537 5.1271 28.89 5.1407C29.007 5.41448 29.1219 5.71384 29.2286 6.03879C29.3706 6.47041 29.5361 7.03756 29.6134 7.40931C29.6352 7.52906 29.6613 7.64336 29.6787 7.75766C29.6988 7.74677 29.7309 7.72936 29.7701 7.70867C30.1729 7.49694 30.5093 7.37992 30.813 7.28086C31.5532 7.0392 32.294 6.83944 32.5101 6.78229C32.8682 9.06668 33.1382 11.276 33.418 13.6855C33.4811 14.2282 33.541 14.7687 33.5987 15.3064C34.3052 15.111 35.0122 14.9156 35.7187 14.7197C36.2967 14.5597 36.8753 14.3997 37.4534 14.2396C36.9102 13.0259 36.3708 11.7549 35.8428 10.428C35.3105 9.09063 34.8772 7.92149 34.4434 6.67887V6.67833Z" fill="white"/>
<path d="M30.0529 9.43014L30.0224 8.29529L29.3714 9.29951L28.4832 8.88367L29.0547 9.72732L28.4695 10.4703L29.3834 10.1943L30.2608 11.1632L30.1095 10.061L31.3989 9.51015L30.0529 9.43014Z" fill="white"/>
<path d="M32.815 10.452C32.4508 10.4798 32.1313 10.526 31.8657 10.575C31.5805 10.6273 31.3312 10.6872 31.1255 10.7432C30.8953 10.8058 30.6819 10.8733 30.4865 10.9424C30.757 12.1872 31.0275 13.4315 31.2975 14.6763C31.076 14.7334 30.855 14.79 30.6335 14.8472C30.4642 14.0101 30.2949 13.1735 30.1262 12.3364C29.8851 12.3734 29.6118 12.4289 29.3163 12.5116C29.3516 12.6716 29.3936 12.8175 29.4371 12.9465C29.147 12.9993 28.8504 13.0581 28.5466 13.1239C28.379 13.1604 28.2141 13.198 28.0519 13.2361C28.4253 14.1548 28.7943 15.195 29.1192 16.3489C29.4627 17.5681 29.6978 18.7046 29.86 19.7257C30.4881 19.5792 31.1162 19.4328 31.7444 19.2864C31.427 18.2332 31.1103 17.1806 30.7929 16.1273C31.1358 15.9907 31.4787 15.8547 31.8216 15.718C31.9229 16.3897 32.0241 17.0608 32.1254 17.7325C32.6642 17.6824 33.2031 17.6318 33.7419 17.5817C33.5786 16.762 33.4289 15.908 33.2967 15.0208C33.0572 13.4124 32.9042 11.884 32.815 10.4509V10.452Z" fill="white"/>
<path d="M29.1984 12.5441C29.1881 12.3014 29.1772 12.0586 29.1668 11.8159C29.1538 11.5105 29.1402 11.2057 29.1271 10.9004C27.8703 11.5241 26.6141 12.1473 25.3573 12.7711C25.4096 13.0024 25.4618 13.2338 25.5136 13.4645C25.9637 13.4188 26.4138 13.3731 26.8639 13.3274C26.8808 13.7378 26.8476 14.1052 26.7747 14.4083C26.7464 14.4954 26.7121 14.5798 26.6707 14.6593C26.2973 15.3696 25.8483 15.1584 25.8483 15.1584C25.8483 15.1584 25.2452 15.1094 24.7537 13.1265C24.2475 11.0822 24.4821 9.27348 24.4974 9.14775C24.5583 8.65517 24.7603 8.34819 24.9578 8.34819C25.2196 8.34819 25.4793 8.98501 25.6055 9.77206C25.7313 10.5591 25.697 10.9494 25.697 10.9494L26.3545 10.6925C27.074 10.4121 27.7936 10.1318 28.5131 9.85098C28.4887 9.77423 28.4457 9.64796 28.3809 9.49664C27.9024 8.37812 26.7404 7.05767 25.2692 6.99998C25.1478 6.99508 24.849 6.99181 24.475 7.09196C22.5891 7.59761 21.8837 9.90867 21.7623 10.3398C21.7051 10.5433 21.6632 10.7404 21.6328 10.9314C21.7378 11.2438 21.8505 11.5622 21.9751 11.8872C22.4378 13.0939 22.9586 14.1601 23.4801 15.0854C23.2243 15.1241 22.945 15.1807 22.6484 15.2618C22.5069 15.3004 22.3724 15.3423 22.2424 15.3859C22.3915 15.7021 22.5874 16.0042 22.8558 16.2921C22.889 16.3281 22.9369 16.3787 22.9984 16.4396C23.0332 16.4244 23.0691 16.4092 23.1034 16.3945C23.11 16.4489 23.1165 16.5033 23.1236 16.5588C23.5155 16.9159 24.2481 17.4422 25.2387 17.4449C25.4281 17.4449 26.0998 17.4324 26.6919 17.034C27.7223 16.3411 28.1425 14.8046 27.7402 13.175C27.8148 13.1586 27.8894 13.1423 27.964 13.1265C27.977 13.1238 27.9901 13.1211 28.0026 13.1178C28.4054 13.0302 28.8081 12.9426 29.2115 12.8549C29.2071 12.751 29.2022 12.6475 29.1979 12.5436L29.1984 12.5441Z" fill="white"/>
<path d="M23.3917 18.1007C23.2714 17.5575 23.1854 17.042 23.1244 16.5609C23.1173 16.5059 23.1103 16.4509 23.1043 16.3965C23.07 16.4118 23.0346 16.427 22.9992 16.4417C22.572 16.6262 22.0854 16.8091 21.5411 16.9702C20.999 17.1308 20.4928 17.2418 20.0377 17.3196C19.316 12.5827 18.8033 9.22601 18.7635 8.98598C18.7597 8.96475 18.7456 8.8793 18.7342 8.76337C18.7167 8.58919 18.7156 8.44223 18.7189 8.33337C17.6107 8.71547 16.4362 9.03442 15.1963 9.26792C15.1124 9.28371 15.0286 9.29895 14.9448 9.31364C15.3917 10.7484 15.8385 12.1837 16.2848 13.6184C16.7132 13.5874 17.1492 13.5635 17.5928 13.5488C17.6717 13.5461 17.7501 13.5439 17.8285 13.5417C17.755 14.1747 17.6864 14.8192 17.6233 15.4734C17.5612 16.1222 17.5073 16.7606 17.4594 17.3915C17.7648 18.3728 18.0707 19.3542 18.376 20.335C19.2458 20.0661 20.2076 19.8119 21.2553 19.5975C22.1082 19.4228 22.9181 19.2954 23.6752 19.2029C23.574 18.8573 23.4787 18.4893 23.3922 18.1001L23.3917 18.1007Z" fill="white"/>
<path d="M21.5776 11.4466C21.5308 11.3339 21.484 11.2213 21.4377 11.1081C21.3533 10.9029 21.2695 10.6971 21.1857 10.4903C20.9865 9.9977 20.7927 9.50838 20.6033 9.02124C20.0857 9.14643 19.5681 9.27107 19.0504 9.39626C19.0896 9.56444 19.143 9.79413 19.2039 10.0668C19.3901 10.8963 19.4581 11.2605 19.6796 12.3387C19.6796 12.3387 20.0743 14.26 20.2386 15.3856C20.2707 15.6061 20.2833 15.8233 20.2833 15.8233C20.2849 15.8565 20.2865 15.8826 20.2865 15.8929C20.6501 15.7705 21.0132 15.6474 21.3768 15.525C21.6451 15.4346 21.9134 15.3437 22.1818 15.2534C22.4866 15.1505 22.7908 15.0476 23.0956 14.9448C22.5807 13.8099 22.074 12.6435 21.5776 11.4461V11.4466Z" fill="white"/>
<path d="M16.3437 13.8047C16.218 13.8069 16.0922 13.809 15.9665 13.8107C15.9605 13.8107 15.9545 13.8107 15.9485 13.8107C16.0362 14.3686 16.0912 14.8525 16.1271 15.2384C16.1516 15.5002 16.1875 15.8899 16.2055 16.4086C16.218 16.7749 16.218 17.0895 16.2136 17.3333C15.8206 16.7711 15.4217 16.1588 15.0271 15.4958C14.4779 14.5721 14.0174 13.6839 13.6304 12.8533C13.1215 13.1145 12.6126 13.3758 12.1031 13.6371C12.0003 13.6898 11.8974 13.7426 11.7945 13.7954C11.5866 13.9021 11.3792 14.0088 11.1713 14.1155C11.4951 14.4769 11.8234 14.8552 12.1548 15.2492C12.3709 15.5061 12.5875 15.7701 12.8058 16.0417C13.1057 16.4146 13.4067 16.7999 13.7082 17.2C14.4561 18.1922 15.1229 19.1583 15.7161 20.0809C15.7014 20.1419 15.4565 21.096 14.8034 21.2114C14.7549 21.2201 14.6466 21.2386 14.5361 21.2038C14.1143 21.0721 13.9058 20.2431 13.9641 19.1834C13.0415 19.2416 12.1189 19.2999 11.1963 19.3581C11.2083 19.4958 11.2306 19.6885 11.2763 19.9144C11.3204 20.1337 11.4277 20.6666 11.6971 21.1526C12.2376 22.1275 13.2157 22.558 13.5961 22.6266C13.8628 22.675 14.1567 22.6723 14.1567 22.6723C14.2509 22.6712 14.3527 22.6701 14.4839 22.65C14.4839 22.65 14.7228 22.613 14.9639 22.5079C15.6851 22.1928 16.2163 21.3176 16.2163 21.3176C16.3829 21.0432 16.6518 20.5376 17.0186 18.6418C17.0638 18.4072 17.1155 18.14 17.1688 17.8276C17.2151 17.557 17.2625 17.2528 17.3087 16.9066C17.3283 16.7602 17.3479 16.6067 17.3664 16.4445C17.4905 15.3799 17.5373 14.4709 17.5537 13.7835C17.1498 13.79 16.7459 13.7965 16.3421 13.8031L16.3437 13.8047Z" fill="white"/>
</svg>
