<svg width="25" height="24" viewBox="0 0 25 24" fill="currentColor" xmlns="http://www.w3.org/2000/svg">
<path fill-rule="evenodd" clip-rule="evenodd" d="M13.8331 1H11.8331V2.055C8.69608 2.4 5.83308 4.382 5.83308 8V16.5L3.83308 18V20H21.8331V18L19.8331 16.5V8C19.8331 4.382 16.9701 2.4 13.8331 2.055V1ZM14.8331 21H10.8331C10.8331 21.5304 11.0438 22.0391 11.4189 22.4142C11.7939 22.7893 12.3027 23 12.8331 23C13.3635 23 13.8722 22.7893 14.2473 22.4142C14.6224 22.0391 14.8331 21.5304 14.8331 21ZM12.8301 4H12.8361C14.2331 4 15.5331 4.405 16.4331 5.09C17.2781 5.736 17.8331 6.66 17.8331 8V17.5L18.5001 18H7.16608L7.83308 17.5V8C7.83308 6.66 8.38808 5.735 9.23308 5.09C10.1331 4.406 11.4321 4 12.8301 4Z" fill="currentColor"/>
</svg>
