<svg width="25" height="24" viewBox="0 0 25 24" fill="currentColor" xmlns="http://www.w3.org/2000/svg">
<path fill-rule="evenodd" clip-rule="evenodd" d="M8.14587 5V3H16.1459V5H23.1459V21H1.14587V5H8.14587ZM14.1459 7H21.1459V19H3.14587V7H10.1459V5H14.1459V7ZM14.1459 13C14.1459 13.5304 13.9352 14.0391 13.5601 14.4142C13.185 14.7893 12.6763 15 12.1459 15C11.6154 15 11.1067 14.7893 10.7317 14.4142C10.3566 14.0391 10.1459 13.5304 10.1459 13C10.1459 12.4696 10.3566 11.9609 10.7317 11.5858C11.1067 11.2107 11.6154 11 12.1459 11C12.6763 11 13.185 11.2107 13.5601 11.5858C13.9352 11.9609 14.1459 12.4696 14.1459 13ZM16.1459 13C16.1459 14.0609 15.7244 15.0783 14.9743 15.8284C14.2242 16.5786 13.2067 17 12.1459 17C11.085 17 10.0676 16.5786 9.31745 15.8284C8.5673 15.0783 8.14587 14.0609 8.14587 13C8.14587 11.9391 8.5673 10.9217 9.31745 10.1716C10.0676 9.42143 11.085 9 12.1459 9C13.2067 9 14.2242 9.42143 14.9743 10.1716C15.7244 10.9217 16.1459 11.9391 16.1459 13Z" fill="currentColor"/>
</svg>
