<svg width="25" height="24" viewBox="0 0 25 24" fill="none" xmlns="http://www.w3.org/2000/svg">
<path fill-rule="evenodd" clip-rule="evenodd" d="M11.1459 3.055C9.11701 3.28241 7.22566 4.19257 5.78205 5.63618C4.33844 7.07978 3.42829 8.97114 3.20087 11H0.145874V13H3.20087C3.42829 15.0289 4.33844 16.9202 5.78205 18.3638C7.22566 19.8074 9.11701 20.7176 11.1459 20.945V24H13.1459V20.945C15.1747 20.7176 17.0661 19.8074 18.5097 18.3638C19.9533 16.9202 20.8635 15.0289 21.0909 13H24.1459V11H21.0909C20.8635 8.97114 19.9533 7.07978 18.5097 5.63618C17.0661 4.19257 15.1747 3.28241 13.1459 3.055V0H11.1459V3.055ZM12.1459 16C13.2067 16 14.2242 15.5786 14.9743 14.8284C15.7244 14.0783 16.1459 13.0609 16.1459 12C16.1459 10.9391 15.7244 9.92172 14.9743 9.17157C14.2242 8.42143 13.2067 8 12.1459 8C11.085 8 10.0676 8.42143 9.31745 9.17157C8.5673 9.92172 8.14587 10.9391 8.14587 12C8.14587 13.0609 8.5673 14.0783 9.31745 14.8284C10.0676 15.5786 11.085 16 12.1459 16ZM12.1459 14C11.6154 14 11.1067 13.7893 10.7317 13.4142C10.3566 13.0391 10.1459 12.5304 10.1459 12C10.1459 11.4696 10.3566 10.9609 10.7317 10.5858C11.1067 10.2107 11.6154 10 12.1459 10C12.6763 10 13.185 10.2107 13.5601 10.5858C13.9352 10.9609 14.1459 11.4696 14.1459 12C14.1459 12.5304 13.9352 13.0391 13.5601 13.4142C13.185 13.7893 12.6763 14 12.1459 14Z" fill="#FAFAFA"/>
</svg>
