<svg width="24" height="24" viewBox="0 0 24 24" fill="none" xmlns="http://www.w3.org/2000/svg">
<path fill-rule="evenodd" clip-rule="evenodd" d="M11 3.055C8.97115 3.28241 7.0798 4.19257 5.63619 5.63618C4.19258 7.07978 3.28243 8.97114 3.05502 11H1.52588e-05V13H3.05502C3.28243 15.0289 4.19258 16.9202 5.63619 18.3638C7.0798 19.8074 8.97115 20.7176 11 20.945V24H13V20.945C15.0289 20.7176 16.9202 19.8074 18.3638 18.3638C19.8074 16.9202 20.7176 15.0289 20.945 13H24V11H20.945C20.7176 8.97114 19.8074 7.07978 18.3638 5.63618C16.9202 4.19257 15.0289 3.28241 13 3.055V0H11V3.055ZM12 19C11.0808 19 10.1705 18.8189 9.32123 18.4672C8.47195 18.1154 7.70028 17.5998 7.05027 16.9497C6.40026 16.2997 5.88464 15.5281 5.53286 14.6788C5.18108 13.8295 5.00002 12.9193 5.00002 12C5.00002 11.0807 5.18108 10.1705 5.53286 9.32122C5.88464 8.47194 6.40026 7.70026 7.05027 7.05025C7.70028 6.40024 8.47195 5.88463 9.32123 5.53284C10.1705 5.18106 11.0808 5 12 5C13.8565 5 15.637 5.7375 16.9498 7.05025C18.2625 8.36301 19 10.1435 19 12C19 13.8565 18.2625 15.637 16.9498 16.9497C15.637 18.2625 13.8565 19 12 19ZM12 16C13.0609 16 14.0783 15.5786 14.8284 14.8284C15.5786 14.0783 16 13.0609 16 12C16 10.9391 15.5786 9.92172 14.8284 9.17157C14.0783 8.42143 13.0609 8 12 8C10.9391 8 9.92173 8.42143 9.17159 9.17157C8.42144 9.92172 8.00002 10.9391 8.00002 12C8.00002 13.0609 8.42144 14.0783 9.17159 14.8284C9.92173 15.5786 10.9391 16 12 16ZM12 14C11.4696 14 10.9609 13.7893 10.5858 13.4142C10.2107 13.0391 10 12.5304 10 12C10 11.4696 10.2107 10.9609 10.5858 10.5858C10.9609 10.2107 11.4696 10 12 10C12.5304 10 13.0392 10.2107 13.4142 10.5858C13.7893 10.9609 14 11.4696 14 12C14 12.5304 13.7893 13.0391 13.4142 13.4142C13.0392 13.7893 12.5304 14 12 14Z" fill="#FAFAFA"/>
</svg>
