<svg width="24" height="24" viewBox="0 0 24 24" fill="currentColor" xmlns="http://www.w3.org/2000/svg">
<path fill-rule="evenodd" clip-rule="evenodd" d="M11.455 23H12.556L13.55 21.758C14.856 20.126 16.431 18.033 17.687 15.867C18.904 13.767 20 11.305 20 9C20 4.395 16.605 1 12 1C7.395 1 4 4.395 4 9C4 11.293 5.063 13.755 6.271 15.867C7.516 18.044 9.091 20.143 10.448 21.783L11.455 23ZM6 9C6 11.95 8.386 15.846 10.712 18.9C11.122 19.44 11.542 19.947 11.937 20.424L12 20.5C12.402 19.9967 12.8177 19.4597 13.247 18.889C15.553 15.823 18 11.949 18 9C18 5.5 15.5 3 12 3C8.5 3 6 5.5 6 9Z" fill="currentColor"/>
<path d="M12 10C12.5523 10 13 9.55228 13 9C13 8.44772 12.5523 8 12 8C11.4477 8 11 8.44772 11 9C11 9.55228 11.4477 10 12 10Z" fill="currentColor"/>
<path fill-rule="evenodd" clip-rule="evenodd" d="M12 11C12.5304 11 13.0391 10.7893 13.4142 10.4142C13.7893 10.0391 14 9.53043 14 9C14 8.46957 13.7893 7.96086 13.4142 7.58579C13.0391 7.21071 12.5304 7 12 7C11.4696 7 10.9609 7.21071 10.5858 7.58579C10.2107 7.96086 10 8.46957 10 9C10 9.53043 10.2107 10.0391 10.5858 10.4142C10.9609 10.7893 11.4696 11 12 11Z" fill="currentColor"/>
</svg>
