<svg width="24" height="24" viewBox="0 0 24 24" fill="currentColor" xmlns="http://www.w3.org/2000/svg">
<path fill-rule="evenodd" clip-rule="evenodd" d="M12.556 23H11.456L10.448 21.783C9.09 20.143 7.516 18.044 6.271 15.867C5.063 13.755 4 11.293 4 9C4 4.395 7.395 1 12 1C16.605 1 20 4.395 20 9C20 11.305 18.904 13.768 17.687 15.867C16.431 18.033 14.857 20.125 13.55 21.757L12.556 23ZM16 9C16 10.0609 15.5786 11.0783 14.8284 11.8284C14.0783 12.5786 13.0609 13 12 13C10.9391 13 9.92172 12.5786 9.17157 11.8284C8.42143 11.0783 8 10.0609 8 9C8 7.93913 8.42143 6.92172 9.17157 6.17157C9.92172 5.42143 10.9391 5 12 5C13.0609 5 14.0783 5.42143 14.8284 6.17157C15.5786 6.92172 16 7.93913 16 9Z" fill="currentColor"/>
<path d="M12 11C11.4696 11 10.9609 10.7893 10.5858 10.4142C10.2107 10.0391 10 9.53043 10 9C10 8.46957 10.2107 7.96086 10.5858 7.58579C10.9609 7.21071 11.4696 7 12 7C12.5304 7 13.0391 7.21071 13.4142 7.58579C13.7893 7.96086 14 8.46957 14 9C14 9.53043 13.7893 10.0391 13.4142 10.4142C13.0391 10.7893 12.5304 11 12 11Z" fill="currentColor"/>
</svg>
