<svg width="25" height="24" viewBox="0 0 25 24" fill="currentColor" xmlns="http://www.w3.org/2000/svg">
<path fill-rule="evenodd" clip-rule="evenodd" d="M21.1459 12C21.1459 13.1819 20.9131 14.3522 20.4608 15.4442C20.0085 16.5361 19.3456 17.5282 18.5098 18.364C17.6741 19.1997 16.682 19.8626 15.59 20.3149C14.4981 20.7672 13.3278 21 12.1459 21C10.964 21 9.79365 20.7672 8.70172 20.3149C7.60979 19.8626 6.61764 19.1997 5.78191 18.364C4.94619 17.5282 4.28325 16.5361 3.83096 15.4442C3.37867 14.3522 3.14587 13.1819 3.14587 12C3.14587 9.61305 4.09409 7.32387 5.78191 5.63604C7.46974 3.94821 9.75893 3 12.1459 3C14.5328 3 16.822 3.94821 18.5098 5.63604C20.1977 7.32387 21.1459 9.61305 21.1459 12ZM12.1459 23C18.2209 23 23.1459 18.075 23.1459 12C23.1459 5.925 18.2209 1 12.1459 1C6.07087 1 1.14587 5.925 1.14587 12C1.14587 18.075 6.07087 23 12.1459 23ZM11.3399 14H13.0059V13.738C13.0059 13.4487 13.0875 13.164 13.2509 12.884C13.4959 12.464 13.6129 12.345 13.8459 12.107C14.0792 11.869 14.3125 11.624 14.5459 11.372C14.7792 11.12 14.9775 10.8213 15.1409 10.476C15.3042 10.1307 15.3859 9.762 15.3859 9.37C15.3859 8.53 15.0895 7.88367 14.4969 7.431C13.9035 6.97767 13.1685 6.75133 12.2919 6.752C11.2745 6.752 10.4625 7.018 9.85587 7.55C9.24921 8.082 8.94587 8.87533 8.94587 9.93H10.6679C10.6679 9.41667 10.8079 9.02233 11.0879 8.747C11.3679 8.47167 11.7319 8.334 12.1799 8.334C12.5899 8.334 12.9142 8.43667 13.1529 8.642C13.3909 8.84733 13.5099 9.15067 13.5099 9.552C13.5099 9.81333 13.4352 10.07 13.2859 10.322C13.0619 10.7 12.9569 10.807 12.7469 11.022C12.5369 11.2367 12.3245 11.4607 12.1099 11.694C11.8855 11.9415 11.7013 12.2225 11.5639 12.527C11.4139 12.849 11.3392 13.192 11.3399 13.556V14ZM12.1459 17.7C12.4641 17.7 12.7694 17.5736 12.9944 17.3485C13.2194 17.1235 13.3459 16.8183 13.3459 16.5C13.3459 16.1817 13.2194 15.8765 12.9944 15.6515C12.7694 15.4264 12.4641 15.3 12.1459 15.3C11.8276 15.3 11.5224 15.4264 11.2973 15.6515C11.0723 15.8765 10.9459 16.1817 10.9459 16.5C10.9459 16.8183 11.0723 17.1235 11.2973 17.3485C11.5224 17.5736 11.8276 17.7 12.1459 17.7Z" fill="currentColor"/>
</svg>
