<svg width="25" height="24" viewBox="0 0 25 24" fill="currentColor" xmlns="http://www.w3.org/2000/svg">
<path fill-rule="evenodd" clip-rule="evenodd" d="M12.8331 1.73401C10.0451 1.73401 9.69509 1.74601 8.60009 1.79601C7.50809 1.84601 6.76109 2.01901 6.10809 2.27301C5.42273 2.52986 4.80212 2.93404 4.29009 3.45701C3.76712 3.96905 3.36294 4.58966 3.10609 5.27501C2.85209 5.92801 2.67909 6.67501 2.62909 7.76701C2.57909 8.86201 2.56709 9.21201 2.56709 12C2.56709 14.788 2.57909 15.138 2.62909 16.233C2.67909 17.325 2.85209 18.072 3.10609 18.725C3.36294 19.4104 3.76712 20.031 4.29009 20.543C4.80212 21.066 5.42273 21.4702 6.10809 21.727C6.76109 21.981 7.50809 22.154 8.60009 22.204C9.69509 22.254 10.0451 22.266 12.8331 22.266C15.6211 22.266 15.9711 22.254 17.0661 22.204C18.1581 22.154 18.9051 21.981 19.5581 21.727C20.2331 21.465 20.8051 21.114 21.3761 20.543C21.9471 19.972 22.2981 19.4 22.5601 18.725C22.8141 18.072 22.9871 17.325 23.0371 16.233C23.0871 15.138 23.0991 14.788 23.0991 12C23.0991 9.21201 23.0871 8.86201 23.0371 7.76701C22.9871 6.67501 22.8141 5.92801 22.5601 5.27501C22.3032 4.58966 21.8991 3.96905 21.3761 3.45701C20.864 2.93404 20.2434 2.52986 19.5581 2.27301C18.9051 2.01901 18.1581 1.84601 17.0661 1.79601C15.9711 1.74601 15.6211 1.73401 12.8331 1.73401ZM12.8331 3.58401C15.5741 3.58401 15.8991 3.59401 16.9811 3.64401C17.9821 3.68901 18.5261 3.85701 18.8881 3.99701C19.3671 4.18301 19.7081 4.40601 20.0681 4.76501C20.4281 5.12401 20.6501 5.46601 20.8361 5.94501C20.9761 6.30701 21.1441 6.85101 21.1891 7.85201C21.2391 8.93401 21.2491 9.25901 21.2491 12C21.2491 14.741 21.2391 15.066 21.1891 16.148C21.1441 17.149 20.9761 17.693 20.8361 18.055C20.6501 18.534 20.4271 18.875 20.0681 19.235C19.7091 19.595 19.3671 19.817 18.8881 20.003C18.5261 20.143 17.9821 20.311 16.9811 20.356C15.8991 20.406 15.5741 20.416 12.8331 20.416C10.0921 20.416 9.76709 20.406 8.68509 20.356C7.68409 20.311 7.14009 20.143 6.77809 20.003C6.29909 19.817 5.95809 19.594 5.59809 19.235C5.23809 18.876 5.01609 18.534 4.83009 18.055C4.69009 17.693 4.52209 17.149 4.47709 16.148C4.42709 15.066 4.41709 14.741 4.41709 12C4.41709 9.25901 4.42709 8.93401 4.47709 7.85201C4.52209 6.85101 4.69009 6.30701 4.83009 5.94501C4.99531 5.49954 5.25766 5.09645 5.59809 4.76501C5.95809 4.40501 6.29909 4.18301 6.77809 3.99701C7.14009 3.85701 7.68409 3.68901 8.68509 3.64401C9.76709 3.59401 10.0921 3.58401 12.8331 3.58401ZM7.56109 12C7.56109 11.3077 7.69745 10.6221 7.96239 9.9825C8.22734 9.34287 8.61567 8.76169 9.10522 8.27214C9.59477 7.78259 10.1759 7.39426 10.8156 7.12932C11.4552 6.86437 12.1408 6.72801 12.8331 6.72801C13.5254 6.72801 14.211 6.86437 14.8506 7.12932C15.4902 7.39426 16.0714 7.78259 16.561 8.27214C17.0505 8.76169 17.4388 9.34287 17.7038 9.9825C17.9687 10.6221 18.1051 11.3077 18.1051 12C18.1051 13.3982 17.5496 14.7392 16.561 15.7279C15.5723 16.7166 14.2313 17.272 12.8331 17.272C11.4349 17.272 10.0939 16.7166 9.10522 15.7279C8.11653 14.7392 7.56109 13.3982 7.56109 12ZM12.8331 15.422C11.9255 15.422 11.0551 15.0615 10.4134 14.4197C9.77162 13.778 9.41109 12.9076 9.41109 12C9.41109 11.0924 9.77162 10.222 10.4134 9.58029C11.0551 8.93854 11.9255 8.57801 12.8331 8.57801C13.7407 8.57801 14.6111 8.93854 15.2528 9.58029C15.8946 10.222 16.2551 11.0924 16.2551 12C16.2551 12.9076 15.8946 13.778 15.2528 14.4197C14.6111 15.0615 13.7407 15.422 12.8331 15.422ZM18.3131 7.75201C18.6398 7.75201 18.9532 7.62221 19.1842 7.39116C19.4153 7.16012 19.5451 6.84676 19.5451 6.52001C19.5451 6.19326 19.4153 5.8799 19.1842 5.64885C18.9532 5.41781 18.6398 5.28801 18.3131 5.28801C17.9863 5.28801 17.673 5.41781 17.4419 5.64885C17.2109 5.8799 17.0811 6.19326 17.0811 6.52001C17.0811 6.84676 17.2109 7.16012 17.4419 7.39116C17.673 7.62221 17.9863 7.75201 18.3131 7.75201Z" fill="currentColor"/>
</svg>
