<svg width="15" height="15" viewBox="0 0 15 15" fill="currentColor" xmlns="http://www.w3.org/2000/svg">
<path d="M6.34696 2.36795C6.32015 2.34113 6.28779 2.32052 6.25214 2.30756C6.2165 2.2946 6.17845 2.28962 6.14068 2.29295C6.1029 2.29629 6.06631 2.30787 6.0335 2.32688C6.00068 2.34589 5.97243 2.37186 5.95074 2.40297C5.40354 3.18396 5.11031 4.11461 5.11096 5.06823C5.11138 5.27252 5.12503 5.47657 5.15181 5.67909L0.644227 11.8267C0.496688 12.0262 0.425913 12.2722 0.444846 12.5197C0.463779 12.7671 0.571155 12.9995 0.747335 13.1742L1.67401 14.1009C1.84879 14.2771 2.08114 14.3845 2.32858 14.4034C2.57603 14.4223 2.82201 14.3516 3.02156 14.204L9.1698 9.69513C9.37208 9.72232 9.57592 9.7364 9.78002 9.73728C10.7333 9.73818 11.6637 9.44541 12.4446 8.8988C12.4757 8.87711 12.5017 8.84886 12.5207 8.81604C12.5397 8.78323 12.5513 8.74664 12.5546 8.70887C12.558 8.67109 12.553 8.63304 12.54 8.5974C12.5271 8.56176 12.5065 8.52939 12.4796 8.50258L6.34696 2.36795ZM6.51622 9.06546L5.47865 10.103C5.43095 10.1532 5.37369 10.1934 5.31024 10.2211C5.24678 10.2488 5.17842 10.2636 5.10918 10.2644C5.03994 10.2653 4.97123 10.2523 4.90708 10.2263C4.84294 10.2002 4.78467 10.1615 4.7357 10.1125C4.68674 10.0636 4.64808 10.0053 4.62199 9.94116C4.5959 9.87702 4.58291 9.8083 4.5838 9.73906C4.58469 9.66982 4.59942 9.60146 4.62715 9.53801C4.65487 9.47455 4.69502 9.41729 4.74522 9.3696L5.78279 8.33203C5.88087 8.23884 6.01147 8.18766 6.14675 8.18939C6.28203 8.19112 6.41128 8.24563 6.50695 8.3413C6.60261 8.43696 6.65712 8.56621 6.65885 8.70149C6.66058 8.83677 6.6094 8.96738 6.51622 9.06546ZM13.6106 7.73218C13.5889 7.7634 13.5606 7.78947 13.5278 7.80855C13.4949 7.82763 13.4582 7.83925 13.4204 7.84259C13.3825 7.84593 13.3444 7.84091 13.3087 7.82788C13.2729 7.81485 13.2405 7.79414 13.2137 7.7672L7.08104 1.63452C7.05411 1.60771 7.03339 1.5753 7.02036 1.53959C7.00734 1.50389 7.00232 1.46575 7.00566 1.42789C7.009 1.39003 7.02062 1.35336 7.0397 1.32049C7.05877 1.28762 7.08484 1.25934 7.11606 1.23765C8.01433 0.61086 9.10452 0.320173 10.1956 0.416528C11.2867 0.512883 12.3091 0.990133 13.0836 1.76465C13.8581 2.53917 14.3354 3.56155 14.4317 4.65263C14.5281 5.74372 14.2374 6.83392 13.6106 7.73218Z" fill="currentColor"/>
</svg>
