<svg width="12" height="15" viewBox="0 0 12 15" fill="none" xmlns="http://www.w3.org/2000/svg">
<path d="M6.67601 13.4919L0.401932 7.21777V8.49951C0.401932 8.83916 0.536514 9.16601 0.780043 9.40313L5.77239 14.3955C6.27226 14.8953 7.08616 14.8953 7.58604 14.3955L11.5658 10.4157C12.0657 9.91582 12.0657 9.10192 11.5658 8.60204L6.67601 13.4919Z" fill="white"/>
<path d="M5.77239 11.1917C6.27226 11.6915 7.08616 11.6915 7.58604 11.1917L11.5658 7.21188C12.0657 6.712 12.0657 5.8981 11.5658 5.39823L6.57347 0.405882C6.33003 0.168314 6.00359 0.0349778 5.66344 0.0341797L1.68366 0.0341797C0.978711 0.0341797 0.401932 0.610959 0.401932 1.31591V5.29569C0.401932 5.63535 0.536514 5.96219 0.780043 6.19931L5.77239 11.1917ZM3.12561 1.95678C3.33807 1.95678 3.54183 2.04118 3.69206 2.19141C3.84229 2.34164 3.92669 2.5454 3.92669 2.75786C3.92669 2.97032 3.84229 3.17408 3.69206 3.32431C3.54183 3.47454 3.33807 3.55894 3.12561 3.55894C2.91315 3.55894 2.70939 3.47454 2.55916 3.32431C2.40893 3.17408 2.32453 2.97032 2.32453 2.75786C2.32453 2.5454 2.40893 2.34164 2.55916 2.19141C2.70939 2.04118 2.91315 1.95678 3.12561 1.95678Z" fill="white"/>
</svg>
