<svg width="14" height="15" viewBox="0 0 14 15" fill="currentColor" xmlns="http://www.w3.org/2000/svg">
<path d="M2.52074 4.47017H11.5841C11.6548 4.47017 11.7226 4.44209 11.7726 4.3921C11.8226 4.34211 11.8507 4.2743 11.8507 4.20361V1.27135C11.8507 0.988559 11.7383 0.717348 11.5384 0.517383C11.3384 0.317417 11.0672 0.205078 10.7844 0.205078H3.32045C3.03766 0.205078 2.76645 0.317417 2.56648 0.517383C2.36651 0.717348 2.25417 0.988559 2.25417 1.27135V4.20361C2.25417 4.2743 2.28226 4.34211 2.33225 4.3921C2.38224 4.44209 2.45004 4.47017 2.52074 4.47017ZM4.38673 1.80449H5.43502C5.57279 1.80245 5.70622 1.85267 5.80847 1.94503C5.91072 2.03738 5.97421 2.16504 5.98615 2.30231C5.99099 2.37523 5.98079 2.44837 5.95617 2.51719C5.93156 2.58601 5.89305 2.64903 5.84306 2.70234C5.79306 2.75565 5.73263 2.79811 5.66553 2.82708C5.59844 2.85606 5.5261 2.87092 5.45301 2.87076H4.40472C4.26695 2.8728 4.13352 2.82259 4.03127 2.73023C3.92902 2.63787 3.86554 2.51021 3.85359 2.37295C3.84875 2.30002 3.85895 2.22688 3.88357 2.15806C3.90819 2.08924 3.94669 2.02622 3.99669 1.97291C4.04668 1.91961 4.10711 1.87714 4.17421 1.84817C4.24131 1.8192 4.31364 1.80433 4.38673 1.80449ZM13.4501 6.07358C13.4506 6.00324 13.4372 5.93348 13.4107 5.86833C13.3841 5.80319 13.3449 5.74394 13.2954 5.69401C13.2458 5.64408 13.1869 5.60445 13.1219 5.57741C13.057 5.55037 12.9873 5.53645 12.917 5.53645H1.18789C1.11754 5.53645 1.04789 5.55037 0.982942 5.57741C0.917997 5.60445 0.859046 5.64408 0.809487 5.69401C0.759927 5.74394 0.72074 5.80319 0.694184 5.86833C0.667627 5.93348 0.654227 6.00324 0.654754 6.07358C0.656432 7.24304 0.978295 8.38972 1.58543 9.38924C2.19257 10.3887 3.0618 11.2029 4.09884 11.7435L3.86759 13.3609C3.83269 13.5889 3.8707 13.8222 3.97621 14.0273C4.06631 14.1997 4.20187 14.3442 4.36821 14.4451C4.53455 14.5461 4.72532 14.5995 4.91987 14.5998H9.16233C9.3939 14.6029 9.62058 14.533 9.81009 14.3999C9.96752 14.286 10.0908 14.1312 10.1667 13.9523C10.2426 13.7734 10.2681 13.5772 10.2406 13.3849L10.006 11.7455C11.0434 11.2048 11.9128 10.3903 12.5199 9.39038C13.1271 8.39048 13.4488 7.24338 13.4501 6.07358ZM4.91987 13.5335L5.11513 12.1673C6.37572 12.5672 7.72914 12.5672 8.98973 12.1673L9.18499 13.5335H4.91987Z" fill="currentColor"/>
</svg>
