<svg width="14" height="14" viewBox="0 0 14 14" fill="currentColor" xmlns="http://www.w3.org/2000/svg">
<path d="M10.3068 13.8568H11.2809C11.7738 13.8568 12.1786 13.4754 12.2373 12.9942L13.2055 3.32419H10.2716V0.947754H9.11568V3.32419H6.19941L6.37544 4.69725C7.37882 4.97303 8.31766 5.47179 8.88097 6.02336C9.72592 6.85658 10.3068 7.71914 10.3068 9.1274V13.8568ZM0.296448 13.27V12.6833H9.11568V13.27C9.11568 13.5869 8.85163 13.8568 8.5113 13.8568H0.883223C0.560497 13.8568 0.296448 13.5869 0.296448 13.27ZM9.11568 9.16261C9.11568 4.4684 0.296448 4.4684 0.296448 9.16261H9.11568ZM0.296448 10.3362H9.09807V11.5097H0.296448V10.3362Z" fill="currentColor"/>
</svg>
