<svg width="16" height="13" viewBox="0 0 16 13" fill="currentColor" xmlns="http://www.w3.org/2000/svg">
<path d="M2.49202 0.0170898H13.666C13.8922 0.0170898 14.0819 0.0937118 14.2351 0.246956C14.3884 0.400199 14.4647 0.589626 14.4642 0.815235C14.4637 1.04084 14.387 1.23054 14.2343 1.38431C14.0816 1.53809 13.8922 1.61444 13.666 1.61338H2.49202C2.26588 1.61338 2.07646 1.53676 1.92374 1.38351C1.77103 1.23027 1.69441 1.04084 1.69388 0.815235C1.69335 0.589626 1.76997 0.400199 1.92374 0.246956C2.07752 0.0937118 2.26695 0.0170898 2.49202 0.0170898ZM2.49202 12.7874C2.26588 12.7874 2.07646 12.7108 1.92374 12.5575C1.77103 12.4043 1.69441 12.2149 1.69388 11.9893V7.99854H1.5542C1.30146 7.99854 1.09527 7.90196 0.93564 7.70881C0.776011 7.51566 0.722802 7.29298 0.776011 7.04076L1.57416 3.05004C1.61406 2.86381 1.70718 2.71083 1.85351 2.59111C1.99983 2.47138 2.16611 2.41152 2.35235 2.41152H13.8057C13.992 2.41152 14.1582 2.47138 14.3046 2.59111C14.4509 2.71083 14.544 2.86381 14.5839 3.05004L15.3821 7.04076C15.4353 7.29351 15.3821 7.51619 15.2224 7.70881C15.0628 7.90143 14.8566 7.998 14.6039 7.99854H14.4642V11.9893C14.4642 12.2154 14.3876 12.4051 14.2343 12.5583C14.0811 12.7116 13.8917 12.7879 13.666 12.7874C13.4404 12.7869 13.251 12.7103 13.0978 12.5575C12.9445 12.4048 12.8679 12.2154 12.8679 11.9893V7.99854H9.67533V11.9893C9.67533 12.2154 9.5987 12.4051 9.44546 12.5583C9.29222 12.7116 9.10279 12.7879 8.87718 12.7874H2.49202ZM3.29017 11.1911H8.07904V7.99854H3.29017V11.1911Z" fill="currentColor"/>
</svg>
