<svg width="15" height="15" viewBox="0 0 15 15" fill="currentColor" xmlns="http://www.w3.org/2000/svg">
<path d="M14.625 2.27717L12.7284 0.380488C12.5537 0.205853 12.2707 0.205853 12.096 0.380488L11.4637 1.01281C11.2891 1.18744 11.2891 1.47049 11.4637 1.64513L9.32142 3.78742C8.0199 3.23697 6.4602 3.4876 5.39925 4.54827L0.973846 8.97367C0.275584 9.67193 0.275584 10.8044 0.973846 11.5027L3.50285 14.0317C4.20111 14.7299 5.33359 14.7299 6.03185 14.0317L10.4575 9.60599C11.5182 8.54533 11.7688 6.98534 11.2184 5.68382L13.3607 3.54153C13.5353 3.71617 13.8184 3.71617 13.993 3.54153L14.6253 2.90921C14.7997 2.73485 14.7997 2.4518 14.625 2.27717ZM5.45765 12.0769L2.92865 9.54787L6.33865 6.13787L8.86765 8.66687L5.45765 12.0769Z" fill="currentColor"/>
</svg>
