<svg width="24" height="24" viewBox="0 0 24 24" fill="currentColor" xmlns="http://www.w3.org/2000/svg">
<path fill-rule="evenodd" clip-rule="evenodd" d="M5 1H19V23H5V1ZM7 21H17C16.998 15 16.998 9 17 3H7C7.002 9 7.002 15 7 21ZM13.5 18C13.5 18.3978 13.342 18.7794 13.0607 19.0607C12.7794 19.342 12.3978 19.5 12 19.5C11.6022 19.5 11.2206 19.342 10.9393 19.0607C10.658 18.7794 10.5 18.3978 10.5 18C10.5 17.6022 10.658 17.2206 10.9393 16.9393C11.2206 16.658 11.6022 16.5 12 16.5C12.3978 16.5 12.7794 16.658 13.0607 16.9393C13.342 17.2206 13.5 17.6022 13.5 18Z" fill="currentColor"/>
</svg>
