<svg width="25" height="24" viewBox="0 0 25 24" fill="none" xmlns="http://www.w3.org/2000/svg">
<path d="M6.83308 2H14.8331V4H12.8331V6H10.8331V4H6.83308V2ZM4.83308 6V4H6.83308V6H4.83308ZM4.83308 16H2.83308V6H4.83308V16ZM6.83308 18H4.83308V16H6.83308V18ZM8.83308 20H6.83308V18H8.83308V20ZM18.8331 20V22H8.83308V20H18.8331ZM20.8331 18V20H18.8331V18H20.8331ZM18.8331 14H20.8331V18H22.8331V10H20.8331V12H18.8331V14ZM12.8331 14V16H18.8331V14H12.8331ZM10.8331 12H12.8331V14H10.8331V12ZM10.8331 12V6H8.83308V12H10.8331Z" fill="#FAFAFA"/>
</svg>
