<svg width="24" height="24" viewBox="0 0 24 24" fill="currentColor" xmlns="http://www.w3.org/2000/svg">
<path fill-rule="evenodd" clip-rule="evenodd" d="M7.3125 1H9.1875V7.41667H10.125V1H12V10.1667L9.1875 11.5417V23H7.3125V11.5417L4.5 10.1667V1H6.375V7.41667H7.3125V1ZM10.125 8.79167H6.375V9.25L8.25 10.1667L10.125 9.25V8.79167Z" fill="currentColor"/>
<path fill-rule="evenodd" clip-rule="evenodd" d="M19.5 1C19.5 1 15.2812 1 14.8125 4.20833C14.3438 7.41667 13.875 12 13.875 12H17.625V23H19.5V1ZM17.625 10.1667V3.29167C16.6875 3.75 16.6085 4.00639 16.2188 6.04167C16.0344 7.00428 15.8808 8.37629 15.75 10.1667H17.625Z" fill="currentColor"/>
</svg>
