<svg width="25" height="24" viewBox="0 0 25 24" fill="none" xmlns="http://www.w3.org/2000/svg">
<path fill-rule="evenodd" clip-rule="evenodd" d="M10.8331 19C13.22 19 15.5092 18.0518 17.197 16.364C18.8849 14.6761 19.8331 12.3869 19.8331 10C19.8331 7.61305 18.8849 5.32387 17.197 3.63604C15.5092 1.94821 13.22 1 10.8331 1C8.44614 1 6.15695 1.94821 4.46912 3.63604C2.7813 5.32387 1.83308 7.61305 1.83308 10C1.83308 12.3869 2.7813 14.6761 4.46912 16.364C6.15695 18.0518 8.44614 19 10.8331 19ZM10.8331 16.882C9.92933 16.882 9.03442 16.704 8.19946 16.3581C7.36449 16.0123 6.60583 15.5054 5.96677 14.8663C5.32772 14.2273 4.8208 13.4686 4.47495 12.6336C4.12909 11.7987 3.95108 10.9038 3.95108 10C3.95108 9.09624 4.12909 8.20134 4.47495 7.36637C4.8208 6.53141 5.32772 5.77274 5.96677 5.13369C6.60583 4.49464 7.36449 3.98771 8.19946 3.64186C9.03442 3.29601 9.92933 3.118 10.8331 3.118C12.6583 3.118 14.4088 3.84307 15.6994 5.13369C16.99 6.42432 17.7151 8.17478 17.7151 10C17.7151 11.8252 16.99 13.5757 15.6994 14.8663C14.4088 16.1569 12.6583 16.882 10.8331 16.882ZM16.7291 19L19.1551 23H21.4951L19.0681 19H16.7291Z" fill="#FAFAFA"/>
</svg>
