<svg width="25" height="24" viewBox="0 0 25 24" fill="none" xmlns="http://www.w3.org/2000/svg">
<path d="M13.8331 0H11.8331V4H13.8331V0ZM0.833084 11V13H4.83308V11H0.833084ZM24.8331 11V13H20.8331V11H24.8331ZM13.8331 24H11.8331V20H13.8331V24ZM8.83308 6H16.8331V8H8.83308V6ZM6.83308 8H8.83308V16H6.83308V8ZM8.83308 18V16H16.8331V18H8.83308ZM18.8331 16H16.8331V8H18.8331V16ZM20.8331 2H22.8331V4H20.8331V2ZM20.8331 4V6H18.8331V4H20.8331ZM22.8331 22H20.8331V20H22.8331V22ZM20.8331 20H18.8331V18H20.8331V20ZM4.83308 2H2.83308V4H4.83308V6H6.83308V4H4.83308V2ZM2.83308 22H4.83308V20H6.83308V18H4.83308V20H2.83308V22Z" fill="#FAFAFA"/>
</svg>
