<svg width="25" height="24" viewBox="0 0 25 24" fill="currentColor" xmlns="http://www.w3.org/2000/svg">
<path fill-rule="evenodd" clip-rule="evenodd" d="M21.8331 12C21.8331 13.1819 21.6003 14.3522 21.148 15.4442C20.6957 16.5361 20.0328 17.5282 19.197 18.364C18.3613 19.1997 17.3692 19.8626 16.2772 20.3149C15.1853 20.7672 14.015 21 12.8331 21C11.6512 21 10.4809 20.7672 9.38893 20.3149C8.297 19.8626 7.30485 19.1997 6.46912 18.364C5.6334 17.5282 4.97046 16.5361 4.51817 15.4442C4.06588 14.3522 3.83308 13.1819 3.83308 12C3.83308 9.61305 4.7813 7.32387 6.46912 5.63604C8.15695 3.94821 10.4461 3 12.8331 3C15.22 3 17.5092 3.94821 19.197 5.63604C20.8849 7.32387 21.8331 9.61305 21.8331 12ZM12.8331 23C18.9081 23 23.8331 18.075 23.8331 12C23.8331 5.925 18.9081 1 12.8331 1C6.75808 1 1.83308 5.925 1.83308 12C1.83308 18.075 6.75808 23 12.8331 23ZM13.8331 6V12H11.8331V6H13.8331Z" fill="currentColor"/>
</svg>
