<svg width="23" height="21" viewBox="0 0 23 21" fill="currentColor" xmlns="http://www.w3.org/2000/svg">
<path d="M8.01309 5.83996C8.01309 6.47996 7.44309 6.95996 7.07309 7.13996C4.13309 6.75996 2.44309 8.69996 2.44309 10.8C2.44309 11.5 2.69309 12.2 3.34309 12.88C2.58156 13.2448 1.94046 13.8201 1.49564 14.5378C1.05082 15.2555 0.820905 16.0856 0.833087 16.93C0.833087 19.38 2.59309 21 4.67309 21H18.2731C21.2031 21 22.8331 19.36 22.8331 16.6C22.8331 14.91 21.9731 13.5 20.3831 12.65C21.0131 11.96 21.3431 11.22 21.3431 10.28C21.3431 8.07996 19.6331 6.20996 17.2431 6.20996C17.1431 6.20996 17.0431 6.20996 16.9431 6.22996L16.9531 5.81996C16.9531 2.07996 12.9931 -4.35305e-05 8.03309 -4.35305e-05C7.47185 -0.00521546 6.91177 0.0517989 6.36309 0.169956C6.24985 0.194138 6.14283 0.241471 6.04876 0.308983C5.95468 0.376495 5.87558 0.462728 5.81642 0.562267C5.75726 0.661807 5.71932 0.772502 5.70498 0.887403C5.69064 1.0023 5.70021 1.11893 5.73309 1.22996C5.85309 1.69996 6.28309 1.94996 6.81309 1.86996C7.07309 1.82996 7.63309 1.76996 8.03309 1.76996C11.4831 1.76996 15.1631 2.71996 15.1631 5.81996C15.1631 6.53996 14.9131 6.72996 14.9131 7.28996C14.9131 7.76996 15.2831 8.18996 15.7531 8.18996C16.2531 8.18996 16.4531 7.95996 17.1531 7.95996C17.4594 7.9463 17.7653 7.99539 18.052 8.10423C18.3386 8.21307 18.6 8.37935 18.8201 8.59286C19.0401 8.80638 19.2143 9.06262 19.3317 9.34586C19.4492 9.6291 19.5075 9.93336 19.5031 10.24C19.5031 11.11 19.1231 11.76 18.5631 12.26C18.1431 12.67 18.2631 13.52 18.8131 13.71C20.1831 14.23 21.0131 15.35 21.0131 16.6C21.0131 18.22 19.9731 19.26 18.2831 19.26H4.67309C3.48309 19.26 2.65309 18.3 2.65309 16.93C2.63358 16.268 2.84119 15.6194 3.24142 15.0918C3.64165 14.5642 4.21039 14.1895 4.85309 14.03C5.55309 13.88 5.73309 12.8 5.15309 12.43C4.88268 12.2534 4.6612 12.0114 4.50913 11.7265C4.35705 11.4416 4.27931 11.1229 4.28309 10.8C4.28309 9.54996 5.36309 8.36996 7.28309 8.79996C8.61309 8.40996 9.77309 7.34996 9.77309 5.79996C9.77309 5.08996 9.47309 4.17996 8.42309 3.13996C8.25562 2.97893 8.03126 2.89066 7.79896 2.89441C7.56667 2.89816 7.34528 2.99361 7.18309 3.15996C7.02083 3.3308 6.93203 3.55845 6.93577 3.79404C6.93951 4.02963 7.03549 4.25435 7.20309 4.41996C7.70309 4.95996 8.01309 5.27996 8.01309 5.83996Z" fill="currentColor"/>
<path d="M15.2031 12.1799L16.3831 12.2399C16.4431 12.2399 16.4431 12.2599 16.4031 12.3099L15.4631 13.0699C15.3831 13.1399 15.3631 13.1999 15.3831 13.2799L15.7331 14.5299C15.7531 14.5899 15.7131 14.6299 15.6331 14.5699L14.5931 13.8699C14.5663 13.848 14.5327 13.836 14.4981 13.836C14.4635 13.836 14.4299 13.848 14.4031 13.8699L13.3631 14.5699C13.3031 14.6099 13.2831 14.5899 13.3031 14.5299L13.6031 13.2799C13.6331 13.1999 13.6031 13.1399 13.5431 13.0799L12.6131 12.3099C12.5631 12.2599 12.5931 12.2399 12.6331 12.2399L13.7931 12.1799C13.9131 12.1799 13.9531 12.1599 13.9931 12.0599L14.4631 10.8299C14.4831 10.7899 14.5031 10.7899 14.5231 10.8299L15.0231 12.0799C15.0531 12.1599 15.1031 12.1799 15.2031 12.1799ZM7.69308 12.9699C7.71308 12.0699 8.36308 11.4999 9.16308 11.4999C9.96308 11.4999 10.5931 12.0799 10.6131 12.9699C10.6244 13.1647 10.5948 13.3596 10.5264 13.5423C10.4579 13.725 10.352 13.8913 10.2155 14.0307C10.0789 14.17 9.9148 14.2793 9.73357 14.3515C9.55234 14.4237 9.35803 14.4572 9.16308 14.4499C8.36308 14.4499 7.66308 13.8599 7.69308 12.9699ZM10.9531 17.5799C11.0531 17.2699 11.2531 16.7299 12.1031 16.7299C12.9131 16.7299 13.1231 17.2299 13.2431 17.5799C13.3831 17.9599 13.6431 18.0999 13.9731 18.0199C14.3731 17.9199 14.4731 17.5799 14.4031 17.2199C14.2831 16.4399 13.4231 15.5699 12.1031 15.5699C10.7731 15.5699 9.91308 16.4399 9.79308 17.2299C9.73308 17.6399 9.87308 17.9299 10.2231 18.0199C10.4831 18.0799 10.7931 18.0199 10.9531 17.5799Z" fill="currentColor"/>
</svg>
