<svg width="23" height="22" viewBox="0 0 23 22" fill="none" xmlns="http://www.w3.org/2000/svg">
<path fill-rule="evenodd" clip-rule="evenodd" d="M11.8331 2C10.6512 2 9.48086 2.23279 8.38893 2.68508C7.297 3.13738 6.30485 3.80031 5.46912 4.63604C4.6334 5.47177 3.97046 6.46392 3.51817 7.55585C3.06588 8.64778 2.83308 9.8181 2.83308 11C2.83308 12.1819 3.06588 13.3522 3.51817 14.4442C3.97046 15.5361 4.6334 16.5282 5.46912 17.364C6.30485 18.1997 7.297 18.8626 8.38893 19.3149C9.48086 19.7672 10.6512 20 11.8331 20C14.22 20 16.5092 19.0518 18.197 17.364C19.8849 15.6761 20.8331 13.3869 20.8331 11C20.8331 8.61305 19.8849 6.32387 18.197 4.63604C16.5092 2.94821 14.22 2 11.8331 2ZM0.833084 11C0.833084 4.925 5.75808 0 11.8331 0C17.9081 0 22.8331 4.925 22.8331 11C22.8331 17.075 17.9081 22 11.8331 22C5.75808 22 0.833084 17.075 0.833084 11Z" fill="#FAFAFA"/>
</svg>
