<svg width="148" height="12" viewBox="0 0 148 12" fill="none" xmlns="http://www.w3.org/2000/svg">
<path fill-rule="evenodd" clip-rule="evenodd" d="M8.15565 0.187988H7.01977H0.625732L7.01977 4.18238V8.33475V11.1757H15.5451V8.33475H8.15565V0.187988Z" fill="#E67800"/>
<path fill-rule="evenodd" clip-rule="evenodd" d="M53.2846 11.1757H61.8125V9.02681H55.6717V6.75755H61.1004V4.60615H55.6717V2.33689H61.8125V0.187988H53.2846V11.1757Z" fill="white"/>
<path fill-rule="evenodd" clip-rule="evenodd" d="M66.5694 0.187988H64.1522V11.1757H72.6776V8.99421H66.5694V0.187988Z" fill="white"/>
<path fill-rule="evenodd" clip-rule="evenodd" d="M89.3999 1.65493C88.8784 1.14842 88.259 0.744717 87.5444 0.446329C86.8273 0.14794 86.0449 0 85.1924 0C84.3399 0 83.5525 0.14794 82.8304 0.446329C82.1082 0.744717 81.4889 1.15344 80.9673 1.66997C80.4458 2.18902 80.0396 2.79081 79.7437 3.47535C79.4503 4.15989 79.3024 4.89708 79.3024 5.68192V5.71201C79.3024 6.49685 79.4478 7.23154 79.7362 7.91858C80.0245 8.60312 80.4307 9.1999 80.9523 9.70891C81.4738 10.2154 82.0932 10.6191 82.8078 10.9175C83.5224 11.2159 84.3073 11.3638 85.1598 11.3638C86.0123 11.3638 86.7997 11.2159 87.5193 10.9175C88.2415 10.6191 88.8608 10.2104 89.3824 9.69136C89.9039 9.17232 90.3101 8.57052 90.606 7.88598C90.8994 7.20145 91.0473 6.46425 91.0473 5.67942V5.64682C91.0473 4.86198 90.9019 4.12729 90.6135 3.44025C90.3227 2.75571 89.919 2.15893 89.3974 1.64991L89.3999 1.65493ZM88.5549 5.71452C88.5549 6.19094 88.4722 6.64228 88.3067 7.06103C88.1412 7.47978 87.9105 7.84837 87.6171 8.16682C87.3237 8.48527 86.9677 8.73351 86.554 8.91655C86.1377 9.09709 85.6839 9.18736 85.1924 9.18736C84.7009 9.18736 84.2345 9.09458 83.8233 8.90903C83.4121 8.72348 83.0535 8.47273 82.7501 8.15178C82.4467 7.83333 82.211 7.46222 82.0455 7.03595C81.88 6.61219 81.7973 6.16085 81.7973 5.68192V5.64932C81.7973 5.1729 81.88 4.72407 82.0455 4.30281C82.211 3.88407 82.4392 3.51547 82.7351 3.19702C83.0285 2.87857 83.3795 2.63033 83.7907 2.4498C84.202 2.26926 84.6583 2.17899 85.1598 2.17899C85.6613 2.17899 86.1051 2.27177 86.5214 2.45732C86.9376 2.64287 87.2987 2.89612 87.6021 3.21457C87.9055 3.53302 88.1412 3.90413 88.3067 4.32789C88.4722 4.75165 88.5549 5.203 88.5549 5.68192V5.71452Z" fill="white"/>
<path d="M77.3815 0.187988H74.9643V11.1782H77.3815V0.187988Z" fill="white"/>
<path fill-rule="evenodd" clip-rule="evenodd" d="M51.5574 0.187988H48.6362L44.1779 4.90453V0.187988H41.7607V11.1757H44.1779V7.8157L45.4492 6.49678L48.8569 11.1757H51.7605L47.0816 4.84937L51.5574 0.187988Z" fill="white"/>
<path fill-rule="evenodd" clip-rule="evenodd" d="M100.523 7.05092L95.39 0.30584L95.2973 0.187988H92.9703V1.02298V11.1757H95.39V4.19743L100.523 10.9375L100.703 11.1757H101.779H102.94V0.187988H100.523V7.05092Z" fill="white"/>
<path d="M39.4336 0.187988H37.0164V11.1782H39.4336V0.187988Z" fill="white"/>
<path fill-rule="evenodd" clip-rule="evenodd" d="M15.5446 4.18238L21.9411 0.187988H15.5446V4.18238Z" fill="white"/>
<path fill-rule="evenodd" clip-rule="evenodd" d="M115.462 6.27109C115.52 7.0459 115.307 7.81569 114.856 8.45007C114.635 8.68578 114.362 8.86882 114.061 8.98667C113.76 9.10452 113.436 9.15217 113.113 9.1296H113.018C111.445 9.1296 110.668 8.19682 110.668 6.2761V0.175435H108.053V6.36637C108.053 7.9561 108.489 9.19981 109.359 10.0574C110.232 10.9149 111.443 11.3638 112.993 11.3638H113.093C114.645 11.3638 115.869 10.9275 116.731 10.0574C117.594 9.18476 118.038 7.96112 118.038 6.36637V0.165405H115.472L115.46 6.27109H115.462Z" fill="white"/>
<path fill-rule="evenodd" clip-rule="evenodd" d="M127.027 6.86541L121.929 0.167969H119.625V11.0479H122.087V4.12977L127.355 11.0479H129.494V0.167969H127.027V6.86541Z" fill="white"/>
<path d="M133.537 0.167969H131.144V11.0479H133.537V0.167969Z" fill="white"/>
<path fill-rule="evenodd" clip-rule="evenodd" d="M144.13 0.175415H144.09L140.775 7.84576L137.51 0.175415H137.468H134.747L139.441 11.0478H141.924L146.63 0.175415H144.13Z" fill="white"/>
<path fill-rule="evenodd" clip-rule="evenodd" d="M147.708 9.50077C147.646 9.34781 147.553 9.2074 147.435 9.08955C147.317 8.97169 147.179 8.87892 147.024 8.81623C146.871 8.75355 146.705 8.72095 146.54 8.72095C146.289 8.72095 146.046 8.79617 145.838 8.93408C145.63 9.07199 145.467 9.27008 145.371 9.50077C145.276 9.73146 145.251 9.98471 145.299 10.2304C145.346 10.4762 145.467 10.7018 145.645 10.8774C145.823 11.0529 146.046 11.1733 146.291 11.2234C146.537 11.271 146.79 11.246 147.021 11.1507C147.252 11.0554 147.45 10.8924 147.588 10.6843C147.726 10.4762 147.801 10.2329 147.801 9.9822C147.801 9.81671 147.768 9.65122 147.706 9.49826L147.708 9.50077Z" fill="white"/>
<path fill-rule="evenodd" clip-rule="evenodd" d="M28.6215 0.187988H26.2043V11.1757H34.7297V8.99421H28.6215V0.187988Z" fill="white"/>
</svg>
