<svg width="25" height="24" viewBox="0 0 25 24" fill="none" xmlns="http://www.w3.org/2000/svg">
<path fill-rule="evenodd" clip-rule="evenodd" d="M8.62909 14.3329V11.7149H15.8401C15.9061 12.0969 15.9601 12.4779 15.9601 12.9799C15.9601 17.3439 13.0371 20.4419 8.63009 20.4419C7.62701 20.4429 6.63359 20.246 5.70668 19.8626C4.77977 19.4792 3.93755 18.9168 3.22822 18.2075C2.51889 17.4983 1.95636 16.6561 1.57284 15.7293C1.18931 14.8024 0.992302 13.809 0.993091 12.8059C0.99217 11.8029 1.18905 10.8094 1.57245 9.88254C1.95586 8.95562 2.51827 8.1134 3.22751 7.40407C3.93675 6.69474 4.77889 6.13222 5.70576 5.74869C6.63262 5.36516 7.62601 5.16816 8.62909 5.16895C10.6911 5.16895 12.4151 5.92195 13.7461 7.16595L11.6731 9.16195C11.1061 8.61595 10.1131 7.98395 8.62909 7.98395C6.02209 7.98395 3.89509 10.1439 3.89509 12.8059C3.89509 15.4679 6.02209 17.6269 8.62909 17.6269C11.6511 17.6269 12.7861 15.4569 12.9601 14.3329H8.62909ZM21.8991 11.7329H24.0331V13.8669H21.9001V15.9999H19.7661V13.8669H17.6331V11.7329H19.7661V9.59995H21.9001L21.8991 11.7329Z" fill="#FAFAFA"/>
</svg>
