<svg width="17" height="15" viewBox="0 0 17 15" fill="none" xmlns="http://www.w3.org/2000/svg">
<path d="M8.69091 12.4026L4.93392 14.6659C4.76795 14.7715 4.59443 14.8167 4.41337 14.8017C4.23231 14.7866 4.07388 14.7262 3.93809 14.6206C3.80229 14.515 3.69667 14.3831 3.62123 14.225C3.54579 14.0669 3.5307 13.8894 3.57597 13.6927L4.5718 9.41512L1.24482 6.54079C1.09394 6.405 0.999784 6.25019 0.962365 6.07638C0.924946 5.90256 0.936111 5.73296 0.995861 5.5676C1.05561 5.40223 1.14614 5.26643 1.26745 5.16021C1.38876 5.05399 1.55473 4.98609 1.76537 4.95652L6.15607 4.57177L7.85351 0.54318C7.92895 0.36212 8.04604 0.226325 8.20477 0.135795C8.3635 0.0452649 8.52555 0 8.69091 0C8.85628 0 9.01833 0.0452649 9.17706 0.135795C9.33579 0.226325 9.45287 0.36212 9.52832 0.54318L11.2258 4.57177L15.6165 4.95652C15.8277 4.9867 15.9937 5.05459 16.1144 5.16021C16.2351 5.26583 16.3256 5.40163 16.386 5.5676C16.4463 5.73357 16.4578 5.90346 16.4204 6.07728C16.3829 6.2511 16.2885 6.4056 16.137 6.54079L12.81 9.41512L13.8059 13.6927C13.8511 13.8888 13.836 14.0663 13.7606 14.225C13.6852 14.3837 13.5795 14.5156 13.4437 14.6206C13.3079 14.7256 13.1495 14.786 12.9685 14.8017C12.7874 14.8173 12.6139 14.7721 12.4479 14.6659L8.69091 12.4026Z" fill="white"/>
</svg>
