<svg width="15" height="15" viewBox="0 0 15 15" fill="none" xmlns="http://www.w3.org/2000/svg">
<path d="M11.0163 6.73452C10.3274 6.64544 9.7246 6.37818 9.29401 5.84367C8.86343 5.30915 8.51897 4.68555 8.43285 4.06195C8.08839 3.97286 7.83004 3.79469 7.57169 3.52743C7.22722 3.082 7.05499 2.63657 6.96887 2.19114L6.19383 2.99292L5.5049 2.36932C4.9882 1.74572 4.04092 1.74572 3.4381 2.36932L1.28519 4.59646C0.682381 5.22006 0.682381 6.20001 1.28519 6.82361L1.88801 7.5363L1.37131 8.07081C0.768497 8.69441 0.768497 9.67436 1.37131 10.298L5.07431 14.1287C5.67713 14.7523 6.62441 14.7523 7.14111 14.1287L12.6526 8.33807C12.222 8.24898 11.7914 8.07081 11.4469 7.71447C11.3608 7.35812 11.1886 7.00178 11.0163 6.73452ZM2.23247 5.22006L3.9548 3.43835C4.21315 3.17109 4.64373 3.17109 4.81596 3.43835L5.24655 3.88378L2.74917 6.64544L2.23247 6.11092C2.06024 5.84367 2.06024 5.48732 2.23247 5.22006ZM2.74917 9.4071C2.49082 9.13984 2.49082 8.7835 2.74917 8.60533L6.45218 4.68555C6.71052 4.41829 7.05499 4.41829 7.22722 4.68555C7.48557 4.95281 7.48557 5.30915 7.22722 5.48732L3.52422 9.31801C3.26587 9.58527 2.92141 9.58527 2.74917 9.4071ZM4.29927 11.0106C4.04092 10.7434 4.04092 10.387 4.29927 10.2089L8.00227 6.37818C8.26062 6.11092 8.60508 6.11092 8.77732 6.37818C9.03566 6.64544 9.03566 7.00178 8.77732 7.17995L5.07431 11.0106C4.90208 11.2779 4.55762 11.2779 4.29927 11.0106ZM10.4135 8.7835L6.71052 12.7033C6.45218 12.9705 6.10771 12.9705 5.93548 12.7033C5.67713 12.436 5.67713 12.0797 5.93548 11.9015L9.63848 8.07081C9.89683 7.80355 10.2413 7.80355 10.4135 8.07081C10.5858 8.1599 10.5858 8.60533 10.4135 8.7835ZM14.2026 4.86372C14.0304 4.68555 13.7721 4.50738 13.5998 4.50738C13.9443 3.61652 13.7721 2.54749 13.0831 1.92389C12.3942 1.2112 11.4469 1.03303 10.5858 1.38937C10.4996 1.12211 10.3274 0.854857 10.1552 0.676685C9.55236 0.0530841 8.60508 0.0530841 8.08839 0.676685C7.48557 1.30029 7.48557 2.28023 8.08839 2.90383C8.34673 3.17109 8.77732 3.34926 9.12178 3.34926C9.03567 4.06195 9.29401 4.77464 9.81071 5.30915C10.3274 5.84367 11.0163 6.02184 11.7053 6.02184C11.7053 6.46727 11.8775 6.82361 12.1359 7.09087C12.7387 7.71447 13.6859 7.71447 14.2026 7.09087C14.8055 6.46727 14.8055 5.48732 14.2026 4.86372Z" fill="white"/>
</svg>
