<svg width="13" height="15" viewBox="0 0 13 15" fill="none" xmlns="http://www.w3.org/2000/svg">
<path d="M10.8155 7.03185H1.93059V3.3298H10.8155M9.70489 11.4743C9.41033 11.4743 9.12784 11.3573 8.91956 11.149C8.71128 10.9407 8.59427 10.6582 8.59427 10.3637C8.59427 10.0691 8.71128 9.78665 8.91956 9.57837C9.12784 9.37009 9.41033 9.25308 9.70489 9.25308C9.99944 9.25308 10.2819 9.37009 10.4902 9.57837C10.6985 9.78665 10.8155 10.0691 10.8155 10.3637C10.8155 10.6582 10.6985 10.9407 10.4902 11.149C10.2819 11.3573 9.99944 11.4743 9.70489 11.4743ZM3.0412 11.4743C2.74665 11.4743 2.46416 11.3573 2.25588 11.149C2.0476 10.9407 1.93059 10.6582 1.93059 10.3637C1.93059 10.0691 2.0476 9.78665 2.25588 9.57837C2.46416 9.37009 2.74665 9.25308 3.0412 9.25308C3.33575 9.25308 3.61824 9.37009 3.82652 9.57837C4.0348 9.78665 4.15182 10.0691 4.15182 10.3637C4.15182 10.6582 4.0348 10.9407 3.82652 11.149C3.61824 11.3573 3.33575 11.4743 3.0412 11.4743ZM0.449768 10.7339C0.449768 11.3855 0.738528 11.9704 1.19018 12.3776V13.6955C1.19018 13.8919 1.26818 14.0802 1.40704 14.2191C1.54589 14.3579 1.73422 14.4359 1.93059 14.4359H2.671C2.86737 14.4359 3.05569 14.3579 3.19454 14.2191C3.3334 14.0802 3.41141 13.8919 3.41141 13.6955V12.9551H9.33468V13.6955C9.33468 13.8919 9.41269 14.0802 9.55154 14.2191C9.6904 14.3579 9.87872 14.4359 10.0751 14.4359H10.8155C11.0119 14.4359 11.2002 14.3579 11.339 14.2191C11.4779 14.0802 11.5559 13.8919 11.5559 13.6955V12.3776C12.0076 11.9704 12.2963 11.3855 12.2963 10.7339V3.3298C12.2963 0.738369 9.64565 0.368164 6.37304 0.368164C3.10043 0.368164 0.449768 0.738369 0.449768 3.3298V10.7339Z" fill="white"/>
</svg>
