<svg width="15" height="13" viewBox="0 0 15 13" fill="none" xmlns="http://www.w3.org/2000/svg">
<path d="M0.205383 10.3889H11.0779V12.5634H0.205383V10.3889ZM13.6148 10.3889H14.7021V12.5634H13.6148V10.3889ZM11.8027 10.3889H12.89V12.5634H11.8027V10.3889ZM12.4188 4.39451C12.8682 3.95236 13.1437 3.3435 13.1437 2.66941C13.1437 1.32846 12.0564 0.241211 10.7155 0.241211V1.32846C11.4403 1.32846 12.0564 1.93008 12.0564 2.66941C12.0564 3.40874 11.4403 4.01035 10.7155 4.01035V5.0976C12.3391 5.0976 13.6148 6.42405 13.6148 8.04768V9.66406H14.7021V8.04043C14.7021 6.4313 13.7743 5.03961 12.4188 4.39451ZM10.3748 6.18485H9.26581C8.54098 6.18485 7.92487 5.47451 7.92487 4.73518C7.92487 3.99585 8.54098 3.46672 9.26581 3.46672V2.37947C8.62182 2.37947 8.00419 2.6353 7.54882 3.09067C7.09344 3.54605 6.83762 4.16367 6.83762 4.80767C6.83762 5.45166 7.09344 6.06929 7.54882 6.52466C8.00419 6.98004 8.62182 7.23586 9.26581 7.23586H10.3748C11.1359 7.23586 11.8027 7.77224 11.8027 8.72177V9.66406H12.89V8.47533C12.89 7.16338 11.7303 6.18485 10.3748 6.18485Z" fill="white"/>
</svg>
