<svg width="25" height="24" viewBox="0 0 25 24" fill="none" xmlns="http://www.w3.org/2000/svg">
<path d="M13.3131 1.5H15.7531L17.5531 4.5L15.7531 7.5H13.3131L14.4131 5.5H12.8331C11.2535 5.50019 9.7205 6.03459 8.48313 7.01635C7.24575 7.9981 6.37678 9.36949 6.01746 10.9076C5.65814 12.4457 5.8296 14.0602 6.50395 15.4885C7.17831 16.9169 8.31592 18.0752 9.7319 18.7751C11.1479 19.4751 12.759 19.6756 14.3033 19.344C15.8477 19.0125 17.2345 18.1684 18.2383 16.9489C19.2422 15.7294 19.8041 14.2062 19.8328 12.6269C19.8614 11.0476 19.3551 9.50509 18.3961 8.25L19.6311 6.602C20.9777 8.15413 21.7526 10.1203 21.8271 12.1739C21.9016 14.2274 21.2711 16.2445 20.0404 17.8901C18.8097 19.5357 17.053 20.7106 15.0622 21.2196C13.0713 21.7285 10.9663 21.5409 9.09683 20.6878C7.22738 19.8348 5.70615 18.3677 4.78593 16.5304C3.86571 14.6931 3.60192 12.5962 4.03841 10.5882C4.4749 8.58027 5.58538 6.78212 7.1853 5.49264C8.78521 4.20315 10.7782 3.49999 12.8331 3.5H14.4131L13.3131 1.5Z" fill="#FAFAFA"/>
</svg>
