<svg width="181" height="12" viewBox="0 0 181 12" fill="none" xmlns="http://www.w3.org/2000/svg">
<path d="M7.25409 1.04736V5.29H2.46233V1.04736H0V11.8119H2.46233V7.39878H7.25409V11.8119H9.70138V1.04736H7.25409Z" fill="white"/>
<path d="M20.1126 11.8119H22.6802L17.9361 1.04736H15.5189L10.8199 11.8119H13.3273L14.2702 9.50505H19.1698L20.1126 11.8119ZM15.0425 7.61442L16.72 3.5097L18.3975 7.61442H15.045H15.0425Z" fill="white"/>
<path d="M23.783 11.8119V1.04736H25.8065L32.0476 8.79794H31.0646V1.04736H33.4818V11.8119H31.4583L25.2172 4.06134H26.2002V11.8119H23.783Z" fill="white"/>
<path d="M38.6197 11.8119V7.41382L39.1789 8.92081L34.51 1.04736H37.1228L40.6909 7.07531H39.194L42.7746 1.04736H45.1617L40.5229 8.92081L41.0821 7.41382V11.8119H38.6197Z" fill="white"/>
<path d="M53.4567 11.8119H56.0244L51.2802 1.04736H48.863L44.1641 11.8119H46.6715L47.6143 9.50505H52.5139L53.4567 11.8119ZM48.3891 7.61442L50.0666 3.5097L51.7441 7.61442H48.3916H48.3891Z" fill="white"/>
<path d="M57.1272 11.8119V1.04736H59.1532L65.3943 8.79794H64.4114V1.04736H66.8286V11.8119H64.8051L58.564 4.06134H59.5469V11.8119H57.1272Z" fill="white"/>
<path d="M89.9607 11.9949C88.4587 11.9949 87.2853 11.5686 86.4402 10.7186C85.5952 9.86858 85.1714 8.64744 85.1714 7.05771V1.0448H87.6338V6.99753C87.6338 8.01305 87.8394 8.74774 88.2531 9.2041C88.6669 9.66046 89.2411 9.88864 89.9758 9.88864C90.7104 9.88864 91.2997 9.66046 91.7134 9.2041C92.1271 8.74774 92.3328 8.01305 92.3328 6.99753V1.0448H94.7349V7.05771C94.7349 8.64744 94.3111 9.86607 93.4661 10.7186C92.6186 11.5686 91.4501 11.9949 89.9607 11.9949Z" fill="white"/>
<path d="M97.1693 11.8119V1.04736H99.1928L105.434 8.79794H104.451V1.04736H106.868V11.8119H104.845L98.6035 4.06134H99.5865V11.8119H97.1693Z" fill="white"/>
<path d="M111.84 1.04736H109.378V11.8119H111.84V1.04736Z" fill="white"/>
<path d="M117.445 11.8119L112.866 1.04736H115.526L119.516 10.5808H117.959L122.008 1.04736H124.44L119.862 11.8119H117.445Z" fill="white"/>
<path d="M125.694 11.9347C125.29 11.9347 124.947 11.7943 124.658 11.511C124.37 11.2301 124.227 10.8741 124.227 10.4428C124.227 10.0115 124.37 9.62785 124.658 9.35203C124.944 9.07621 125.29 8.93579 125.694 8.93579C126.098 8.93579 126.454 9.0737 126.737 9.35203C127.018 9.62785 127.161 9.99394 127.161 10.4428C127.161 10.8916 127.02 11.2301 126.737 11.511C126.454 11.7918 126.108 11.9347 125.694 11.9347Z" fill="white"/>
<path d="M135.636 9.81347V7.32104H140.548V5.36773H135.636V3.04581H141.197V1.04736H133.204V11.8119H141.393V9.81347H135.636Z" fill="white"/>
<path d="M152.709 11.8119L150.352 8.34911C150.352 8.34911 150.362 8.3466 150.367 8.34409C151.052 8.04069 151.581 7.60188 151.955 7.02266C152.328 6.44343 152.514 5.74886 152.514 4.93895C152.514 4.12904 152.328 3.44701 151.955 2.86277C151.581 2.27853 151.052 1.82969 150.367 1.51626C149.683 1.20283 148.865 1.04736 147.92 1.04736H143.342V11.8119H145.804V8.79794H147.92C147.958 8.79794 147.99 8.79293 148.026 8.79293L150.079 11.8119H152.709ZM145.804 3.07591H147.782C148.527 3.07591 149.091 3.23638 149.475 3.55984C149.858 3.88331 150.049 4.34218 150.049 4.93644C150.049 5.53071 149.858 5.99209 149.475 6.32057C149.091 6.64905 148.527 6.81203 147.782 6.81203H145.804V3.07591Z" fill="white"/>
<path d="M156.909 1.04736H154.447V11.8119H156.909V1.04736Z" fill="white"/>
<path d="M164.464 11.9949C163.65 11.9949 162.89 11.8595 162.19 11.5862C161.491 11.3154 160.884 10.9267 160.37 10.4252C159.856 9.92374 159.455 9.33448 159.169 8.65747C158.883 7.98045 158.737 7.23824 158.737 6.42833C158.737 5.61842 158.88 4.87621 159.169 4.19919C159.455 3.52217 159.858 2.93292 160.377 2.43142C160.896 1.92993 161.506 1.54127 162.205 1.27047C162.905 0.999662 163.662 0.864258 164.48 0.864258C165.397 0.864258 166.227 1.02474 166.972 1.3482C167.717 1.67166 168.341 2.14558 168.845 2.76993L167.258 4.24683C166.904 3.82558 166.506 3.50964 166.057 3.29399C165.608 3.07835 165.121 2.97053 164.6 2.97053C164.106 2.97053 163.652 3.05579 163.241 3.22379C162.83 3.39179 162.471 3.62999 162.168 3.93841C161.864 4.24683 161.631 4.61041 161.466 5.02916C161.3 5.45042 161.217 5.9168 161.217 6.42833C161.217 6.93985 161.3 7.40875 161.466 7.8275C161.631 8.24875 161.867 8.61233 162.168 8.91825C162.469 9.22416 162.827 9.46487 163.241 9.63287C163.655 9.80087 164.108 9.88613 164.6 9.88613C165.124 9.88613 165.61 9.7758 166.057 9.55514C166.506 9.33448 166.904 9.01353 167.258 8.59478L168.845 10.0717C168.341 10.6985 167.717 11.175 166.972 11.5009C166.227 11.8294 165.39 11.9924 164.464 11.9924V11.9949Z" fill="white"/>
<path d="M178.17 11.8119H180.738L175.994 1.04736H173.577L168.878 11.8119H171.385L172.328 9.50505H177.227L178.17 11.8119ZM173.1 7.61442L174.778 3.5097L176.455 7.61442H173.103H173.1Z" fill="white"/>
<path fill-rule="evenodd" clip-rule="evenodd" d="M78.7065 6.25029H75.1308V8.04313H76.4849V9.41973C76.3219 9.50749 76.1589 9.58522 75.9934 9.6454C75.5346 9.80838 75.0632 9.89113 74.5817 9.89113C74.1003 9.89113 73.6164 9.80337 73.2001 9.63035C72.7814 9.45734 72.4203 9.21411 72.1119 8.9082C71.8035 8.59978 71.5677 8.23369 71.4022 7.80993C71.2368 7.38366 71.154 6.9248 71.154 6.43333C71.154 5.94187 71.2368 5.45542 71.4022 5.03417C71.5677 4.61291 71.806 4.24933 72.1119 3.94342C72.4178 3.635 72.7839 3.39679 73.2076 3.22879C73.6314 3.06079 74.0928 2.97554 74.5968 2.97554C75.1409 2.97554 75.6399 3.07583 76.0937 3.27643C76.5476 3.47703 76.9713 3.78545 77.3625 4.2067L78.9197 2.7298C78.4056 2.1255 77.7737 1.66413 77.024 1.34568C76.2743 1.02723 75.4293 0.869263 74.494 0.869263C73.6464 0.869263 72.8716 1.00467 72.167 1.27547C71.4624 1.54628 70.8481 1.93494 70.3241 2.43643C69.8 2.93792 69.3938 3.52718 69.1079 4.2042C68.8221 4.88121 68.6766 5.62342 68.6766 6.43333C68.6766 7.24325 68.8196 7.98546 69.1079 8.66247C69.3938 9.33949 69.795 9.92874 70.309 10.4302C70.823 10.9317 71.4324 11.3204 72.1369 11.5912C72.8415 11.862 73.6113 11.9999 74.4488 11.9999C75.2036 11.9999 75.9608 11.8846 76.7156 11.6539C77.4703 11.4232 78.1398 11.0822 78.7241 10.6308V6.26282H78.709V6.2528L78.7065 6.25029Z" fill="white"/>
</svg>
